# xmcd
#
# Track frame offsets:
#	150
#	15482
#	30316
#	47181
#	67340
#	84664
#	103005
#	121373
#	134143
#	149475
#	164309
#	181174
#	201333
#	218657
#	236998
#	255366
#
# Disc length: 3575 seconds
#
# Revision: 1
# Processed by: cddbd v1.5.2PL0 Copyright (c) Steve Scherf et al.
# Submitted via: audiograbber 1.83.01
#
DISCID=ed0df510
DTITLE=Compilation - CB60393
DYEAR=2009
DGENRE=Country
TTITLE0=Chesney, Kenny - Ten With A Two
TTITLE1=Carolina Rain - Weight Of The World
TTITLE2=Michael Carroll, Jason - My Roots Are Showing
TTITLE3=Shawanda, Crystal - Where I'm From
TTITLE4=Ingram, Jack - That's A Man
TTITLE5=O'Neal, Jamie - Like A Woman
TTITLE6=Montgomery, John Michael - Forever
TTITLE7=Moore, Justin - Back That Thing Up
TTITLE8=Chesney, Kenny - Ten With A Two
TTITLE9=Carolina Rain - Weight Of The World
TTITLE10=Michael Carroll,  Jason - My Roots Are Showing
TTITLE11=Shawanda, Crystal - Where I'm From
TTITLE12=Ingram, Jack - That's A Man
TTITLE13=O'Neal, Jamie - Like A Woman
TTITLE14=Montgomery, John Michael - Forever
TTITLE15=Moore, Justin - Back That Thing Up
EXTD=
EXTT0=
EXTT1=
EXTT2=
EXTT3=
EXTT4=
EXTT5=
EXTT6=
EXTT7=
EXTT8=
EXTT9=
EXTT10=
EXTT11=
EXTT12=
EXTT13=
EXTT14=
EXTT15=
PLAYORDER=
